<mxfile host="multicloud-diagrams" agent="PIP package multicloud-diagrams. Generate resources in draw.io compatible format for Cloud infrastructure. Copyrights @ Roman Tsypuk 2023. MIT license." type="MultiCloud">
	<diagram id="diagram_1" name="AWS components">
		<mxGraphModel dx="1015" dy="661" grid="1" gridSize="10" guides="1" tooltips="1" connect="1" arrows="1" fold="1" page="1" pageScale="1" pageWidth="850" pageHeight="1100" math="0" shadow="1">
			<root>
				<mxCell id="0"/>
				<mxCell id="1" parent="0"/>
				<mxCell id="vertex:lambda_function:arn:aws:lambda:eu-west-1:123456789012:function:prod-lambda-name" value="&lt;b&gt;Name&lt;/b&gt;: prod-lambda-name&lt;BR&gt;&lt;b&gt;ARN&lt;/b&gt;: arn:aws:lambda:eu-west-1:123456789012:function:prod-lambda-name" style="verticalLabelPosition=bottom;verticalAlign=top;aspect=fixed;align=left;pointerEvents=1;shape=mxgraph.aws3.lambda_function;prIcon=server;fillColor=#F58534;gradientColor=none;html=1;" parent="1" vertex="1">
					<mxGeometry width="69" height="72" as="geometry" x="-12.75" y="-90"/>
				</mxCell>
				<mxCell id="vertex:iam_role:arn:aws:iam::123456789012:role/prod-lambda-name" value="&lt;b&gt;Name&lt;/b&gt;: role-lambda-name&lt;BR&gt;&lt;b&gt;ARN&lt;/b&gt;: arn:aws:iam::123456789012:role/prod-lambda-name" style="outlineConnect=0;dashed=0;verticalLabelPosition=bottom;verticalAlign=top;align=left;html=1;shape=mxgraph.aws3.role;fillColor=#759C3E;gradientColor=none;" parent="1" vertex="1">
					<mxGeometry width="94.5" height="79.5" as="geometry" x="-25.5" y="60"/>
				</mxCell>
				<mxCell id="vertex:iam_policy:arn:aws:iam::123456789012:policy/prod-cloudwatch-policy" value="&lt;b&gt;Name&lt;/b&gt;: prod-cloudwatch-policy&lt;BR&gt;&lt;b&gt;ARN&lt;/b&gt;: arn:aws:iam::123456789012:policy/prod-cloudwatch-policy" style="sketch=0;outlineConnect=0;fontColor=#232F3E;gradientColor=none;fillColor=#3F8624;strokeColor=none;dashed=0;verticalLabelPosition=bottom;verticalAlign=top;align=left;html=1;fontSize=12;fontStyle=0;aspect=fixed;pointerEvents=1;shape=mxgraph.aws4.policy;" parent="1" vertex="1">
					<mxGeometry width="78" height="67" as="geometry" x="-200" y="290"/>
				</mxCell>
				<mxCell id="vertex:iam_policy:arn:aws:iam::123456789012:policy/prod-s3-policy" value="&lt;b&gt;Name&lt;/b&gt;: prod-s3-policy&lt;BR&gt;&lt;b&gt;ARN&lt;/b&gt;: arn:aws:iam::123456789012:policy/prod-s3-policy" style="sketch=0;outlineConnect=0;fontColor=#232F3E;gradientColor=none;fillColor=#3F8624;strokeColor=none;dashed=0;verticalLabelPosition=bottom;verticalAlign=top;align=left;html=1;fontSize=12;fontStyle=0;aspect=fixed;pointerEvents=1;shape=mxgraph.aws4.policy;" parent="1" vertex="1">
					<mxGeometry width="78" height="67" as="geometry" x="-20" y="240"/>
				</mxCell>
				<mxCell id="vertex:iam_policy:arn:aws:iam::123456789012:policy/prod-dynamo-policy" value="&lt;b&gt;Name&lt;/b&gt;: prod-dynamodb-policy&lt;BR&gt;&lt;b&gt;ARN&lt;/b&gt;: arn:aws:iam::123456789012:policy/prod-dynamo-policy" style="sketch=0;outlineConnect=0;fontColor=#232F3E;gradientColor=none;fillColor=#3F8624;strokeColor=none;dashed=0;verticalLabelPosition=bottom;verticalAlign=top;align=left;html=1;fontSize=12;fontStyle=0;aspect=fixed;pointerEvents=1;shape=mxgraph.aws4.policy;" parent="1" vertex="1">
					<mxGeometry width="78" height="67" as="geometry" x="150" y="210"/>
				</mxCell>
				<mxCell id="edge:lambda_function:arn:aws:lambda:eu-west-1:123456789012:function:prod-lambda-name:to:iam_role:arn:aws:iam::123456789012:role/prod-lambda-name" style="endFill=0;endArrow=none;endArrow=none;" parent="1" source="vertex:lambda_function:arn:aws:lambda:eu-west-1:123456789012:function:prod-lambda-name" target="vertex:iam_role:arn:aws:iam::123456789012:role/prod-lambda-name" edge="2">
					<mxGeometry as="geometry"/>
				</mxCell>
				<mxCell id="label:lambda_function:arn:aws:lambda:eu-west-1:123456789012:function:prod-lambda-name:to:iam_role:arn:aws:iam::123456789012:role/prod-lambda-name" value="HasRole" style="edgeLabel;html=1;align=left;verticalAlign=middle;resizable=0;points=[];labelBackgroundColor=none;" parent="edge:lambda_function:arn:aws:lambda:eu-west-1:123456789012:function:prod-lambda-name:to:iam_role:arn:aws:iam::123456789012:role/prod-lambda-name" vertex="1" connectable="0">
					<mxGeometry relative="1" as="geometry">
						<mxPoint as="offset" y="19"/>
					</mxGeometry>
				</mxCell>
				<mxCell id="edge:iam_role:arn:aws:iam::123456789012:role/prod-lambda-name:to:iam_policy:arn:aws:iam::123456789012:policy/prod-cloudwatch-policy" style="endFill=0;endArrow=none;endArrow=none;" parent="1" source="vertex:iam_role:arn:aws:iam::123456789012:role/prod-lambda-name" target="vertex:iam_policy:arn:aws:iam::123456789012:policy/prod-cloudwatch-policy" edge="2">
					<mxGeometry as="geometry"/>
				</mxCell>
				<mxCell id="label:iam_role:arn:aws:iam::123456789012:role/prod-lambda-name:to:iam_policy:arn:aws:iam::123456789012:policy/prod-cloudwatch-policy" value="Allow CloudWatch logs" style="edgeLabel;html=1;align=left;verticalAlign=middle;resizable=0;points=[];labelBackgroundColor=none;" parent="edge:iam_role:arn:aws:iam::123456789012:role/prod-lambda-name:to:iam_policy:arn:aws:iam::123456789012:policy/prod-cloudwatch-policy" vertex="1" connectable="0">
					<mxGeometry relative="1" as="geometry">
						<mxPoint as="offset" x="-78" y="-5"/>
					</mxGeometry>
				</mxCell>
				<mxCell id="edge:iam_role:arn:aws:iam::123456789012:role/prod-lambda-name:to:iam_policy:arn:aws:iam::123456789012:policy/prod-s3-policy" style="endFill=0;endArrow=none;endArrow=none;" parent="1" source="vertex:iam_role:arn:aws:iam::123456789012:role/prod-lambda-name" target="vertex:iam_policy:arn:aws:iam::123456789012:policy/prod-s3-policy" edge="2">
					<mxGeometry as="geometry"/>
				</mxCell>
				<mxCell id="label:iam_role:arn:aws:iam::123456789012:role/prod-lambda-name:to:iam_policy:arn:aws:iam::123456789012:policy/prod-s3-policy" value="Allow S3 access" style="edgeLabel;html=1;align=left;verticalAlign=middle;resizable=0;points=[];labelBackgroundColor=none;" parent="edge:iam_role:arn:aws:iam::123456789012:role/prod-lambda-name:to:iam_policy:arn:aws:iam::123456789012:policy/prod-s3-policy" vertex="1" connectable="0">
					<mxGeometry relative="1" as="geometry">
						<mxPoint as="offset" x="-20" y="31"/>
					</mxGeometry>
				</mxCell>
				<mxCell id="edge:iam_role:arn:aws:iam::123456789012:role/prod-lambda-name:to:iam_policy:arn:aws:iam::123456789012:policy/prod-dynamo-policy" style="endFill=0;endArrow=none;endArrow=none;" parent="1" source="vertex:iam_role:arn:aws:iam::123456789012:role/prod-lambda-name" target="vertex:iam_policy:arn:aws:iam::123456789012:policy/prod-dynamo-policy" edge="2">
					<mxGeometry as="geometry"/>
				</mxCell>
				<mxCell id="label:iam_role:arn:aws:iam::123456789012:role/prod-lambda-name:to:iam_policy:arn:aws:iam::123456789012:policy/prod-dynamo-policy" value="Allow DynamoDB read access" style="edgeLabel;html=1;align=left;verticalAlign=middle;resizable=0;points=[];labelBackgroundColor=none;" parent="edge:iam_role:arn:aws:iam::123456789012:role/prod-lambda-name:to:iam_policy:arn:aws:iam::123456789012:policy/prod-dynamo-policy" vertex="1" connectable="0">
					<mxGeometry relative="1" as="geometry">
						<mxPoint as="offset" x="31" y="15"/>
					</mxGeometry>
				</mxCell>
			</root>
		</mxGraphModel>
	</diagram>
</mxfile>